<?xml version="1.0" standalone="no"?>
<!DOCTYPE svg PUBLIC "-//W3C//DTD SVG 20010904//EN"
 "http://www.w3.org/TR/2001/REC-SVG-20010904/DTD/svg10.dtd">
<svg version="1.0" xmlns="http://www.w3.org/2000/svg"
 width="500.000000pt" height="500.000000pt" viewBox="0 0 500.000000 500.000000"
 preserveAspectRatio="xMidYMid meet">

<g transform="translate(0.000000,500.000000) scale(0.100000,-0.100000)"
fill="#000000" stroke="none">
<path d="M0 2500 l0 -2500 2500 0 2500 0 0 2500 0 2500 -2500 0 -2500 0 0
-2500z m2521 1650 c123 -23 270 -121 366 -242 47 -59 153 -225 153 -240 0 -6
-61 -30 -65 -26 -1 2 -18 35 -38 73 -75 144 -188 259 -319 328 -63 32 -81 37
-141 37 -174 0 -308 -89 -443 -296 -30 -45 -58 -94 -64 -109 -9 -24 -14 -27
-42 -21 -17 3 -34 9 -37 12 -9 9 67 142 126 221 119 158 274 254 439 272 6 0
35 -4 65 -9z m-918 -491 c65 -5 155 -21 200 -34 79 -23 427 -148 456 -165 16
-8 10 -13 -41 -29 -34 -11 -45 -9 -125 22 -154 61 -341 117 -425 128 -117 16
-280 7 -347 -19 -175 -68 -261 -202 -261 -407 0 -119 31 -229 108 -387 57
-115 58 -117 40 -140 -18 -23 -18 -23 -33 -3 -33 43 -117 219 -145 304 -84
258 -48 458 109 604 70 64 147 103 240 122 84 17 84 17 224 4z m1952 -14 c142
-36 282 -140 333 -245 138 -290 8 -657 -409 -1155 -248 -296 -766 -605 -1014
-605 -125 0 -383 95 -545 201 -199 130 -440 348 -563 511 -58 76 -58 77 -42
102 10 14 20 26 24 25 3 0 31 -34 61 -75 120 -164 328 -354 563 -513 61 -41
232 -123 317 -151 144 -48 295 -35 461 40 342 154 655 424 881 762 209 312
276 520 237 734 -29 160 -152 271 -339 306 -153 29 -414 -24 -757 -152 -75
-29 -141 -45 -247 -60 -265 -38 -448 -107 -651 -243 -381 -257 -720 -725 -790
-1092 -51 -265 27 -461 221 -556 67 -33 73 -34 189 -34 66 0 152 6 190 14 105
21 287 82 399 135 93 43 101 45 137 34 22 -6 39 -14 39 -18 0 -9 -142 -79
-230 -113 -365 -141 -565 -159 -758 -67 -195 93 -283 257 -269 503 11 200 91
405 253 649 187 282 406 497 661 650 190 114 309 153 648 209 33 6 92 21 130
35 265 96 489 163 590 177 75 10 225 6 280 -8z m-1710 -177 c14 -6 25 -14 25
-17 -1 -3 -11 -48 -23 -99 -21 -89 -23 -93 -63 -117 l-42 -25 13 69 c21 107
48 201 59 201 3 0 17 -5 31 -12z m1309 -123 c35 -139 35 -139 -13 -108 -37 24
-40 30 -61 120 -12 52 -20 96 -18 97 1 2 12 8 23 14 29 16 38 -1 69 -123z
m-256 -48 c144 -70 287 -167 402 -274 103 -95 239 -240 296 -315 35 -45 35
-47 19 -72 -10 -14 -20 -26 -24 -26 -3 0 -24 26 -46 57 -106 151 -380 398
-560 505 -69 41 -203 109 -255 128 -53 20 -56 27 -19 44 44 19 59 16 187 -47z
m-320 -6 c9 -5 -3 -18 -37 -43 -75 -52 -172 -139 -301 -268 -100 -99 -122
-127 -157 -200 -23 -47 -46 -109 -52 -138 -14 -69 -14 -187 0 -254 32 -152
150 -313 317 -432 28 -21 52 -41 52 -45 0 -5 -9 -16 -20 -26 -19 -17 -21 -17
-62 11 -67 45 -220 202 -266 274 -87 133 -121 323 -88 480 36 174 131 305 386
531 139 123 147 129 180 123 19 -3 41 -9 48 -13z m72 -184 c230 -198 330 -395
317 -626 -9 -179 -66 -298 -212 -446 -94 -95 -257 -231 -312 -259 -27 -14 -36
-14 -64 -2 l-32 13 64 44 c161 108 319 257 391 365 63 96 89 171 95 280 14
226 -64 384 -283 576 l-103 91 22 18 c12 10 24 18 27 19 3 0 44 -33 90 -73z
m-869 -223 c-26 -263 -21 -534 13 -730 l12 -71 -33 20 c-19 10 -37 27 -42 36
-28 52 -42 542 -22 720 8 68 12 77 42 102 19 15 35 26 36 25 2 -2 -1 -47 -6
-102z m1424 26 c26 -126 31 -431 11 -625 l-14 -129 -38 -33 c-21 -17 -40 -30
-42 -29 -2 2 4 55 14 117 13 94 15 165 11 414 -3 165 -9 313 -13 328 l-7 29
36 -24 c21 -13 39 -34 42 -48z m-683 -230 c43 -12 101 -73 118 -125 24 -74
-11 -162 -84 -206 -38 -23 -134 -26 -174 -5 -98 51 -132 186 -69 269 30 40 99
77 142 77 17 0 46 -5 67 -10z m1288 -322 c32 -68 73 -168 91 -223 31 -93 33
-109 33 -240 1 -130 -1 -145 -28 -219 -69 -186 -245 -295 -477 -296 -105 0
-166 11 -339 60 -165 47 -467 180 -410 180 8 0 27 6 41 14 24 12 34 9 125 -35
110 -54 347 -134 439 -149 522 -86 740 320 469 876 -24 50 -44 95 -44 100 0
11 29 54 36 54 3 0 32 -55 64 -122z m-1979 -603 c6 -28 19 -78 29 -112 16 -56
16 -62 1 -66 -9 -3 -23 -8 -32 -12 -13 -5 -20 4 -33 42 -15 46 -48 185 -60
250 l-5 32 44 -42 c33 -32 47 -55 56 -92z m1354 113 c-2 -13 -18 -86 -35 -163
-17 -76 -33 -141 -35 -143 -10 -10 -65 24 -60 37 3 7 14 59 26 115 19 96 22
103 62 138 23 21 43 38 45 38 1 0 0 -10 -3 -22z m-1206 -545 c86 -176 222
-332 337 -389 50 -25 71 -29 140 -29 73 0 87 3 158 39 129 63 234 182 330 374
33 65 39 72 66 72 16 0 31 -4 34 -9 8 -12 -67 -163 -119 -241 -52 -78 -172
-196 -239 -235 -114 -66 -223 -81 -338 -45 -157 48 -298 184 -409 393 -50 95
-58 122 -36 130 32 14 44 4 76 -60z"/>
</g>
</svg>
